# xmcd CD database file
#
# Track frame offsets:
#	150
#	18100
#	31486
#	53260
#	74466
#	88778
#	99249
#	114256
#	129031
#	146931
#	165994
#	181213
#	191401
#	202294
#	218015
#	233010
#	246867
#	259691
#	269365
#	285747
#
# Disc length: 4024 seconds
#
# Revision: 0
# Processed by: cddbd v1.5.2PL0 Copyright (c) Steve Scherf et al.
# Submitted via: CDex 1.51
#
DISCID=110fb614
DTITLE=Various Artist - The Acoustic Collection, Volume II
DYEAR=2000
DGENRE=Blues
TTITLE0=Miss You Nights
TTITLE1=Yesterday
TTITLE2=I Don`t Want To Talk About It
TTITLE3=Memory
TTITLE4=Trains And Boats And Planes
TTITLE5=As Tears Go By
TTITLE6=Walk On By
TTITLE7=The Sun Aint Gonna Shine Anymore
TTITLE8=This Time Last Year
TTITLE9=Crying Eyes
TTITLE10=Matha`s Harbour
TTITLE11=Blue Moon
TTITLE12=Wonderful Land
TTITLE13=Waves
TTITLE14=Albatross
TTITLE15=Stranger On The Shore
TTITLE16=Moon River
TTITLE17=Under The Boardwalk
TTITLE18=Golden Brown
TTITLE19=Sea And Sand
EXTD=YEAR: 2000
EXTT0=
EXTT1=
EXTT2=
EXTT3=
EXTT4=
EXTT5=
EXTT6=
EXTT7=
EXTT8=
EXTT9=
EXTT10=
EXTT11=
EXTT12=
EXTT13=
EXTT14=
EXTT15=
EXTT16=
EXTT17=
EXTT18=
EXTT19=
PLAYORDER=
